<?xml version="1.0" standalone="no"?>
<!-- Generator: Paintmaps.com , Online SVG vector map maker -->
<svg xmlns="http://www.w3.org/2000/svg" version="1.1" baseProfile="full" width="800" height="533" style="background-color:false">
<path d="M 440.6221 347.0855 L 437.935 350.2468 L 435.9592 356.3585 L 432.956 359.6252 L 431.2964 362.4176 L 423.7489 369.425 L 421.8521 373.8508 L 420.7062 381.4905 L 421.8126 383.8087 L 426.1593 385.6001 L 430.5456 388.6033 L 437.3028 388.2872 L 440.1874 390.1312 L 440.3059 395.1365 L 439.5551 401.1956 L 438.0535 403.7773 L 437.6979 407.5181 L 439.16 410.6267 L 441.9656 413.6299 L 443.4277 416.4223 L 446.1147 417.1599 L 453.7808 416.1589 L 454.5316 418.319 L 454.2945 424.6942 L 456.5469 429.2254 L 460.4589 433.8619 L 461.4863 438.1822 L 466.4653 448.1929 L 464.0153 449.5627 L 463.4226 451.3541 L 464.0943 455.0949 L 467.1371 456.7282 L 464.7266 458.5196 L 462.4347 458.3616 L 460.3008 460.2056 L 460.775 461.2594 L 457.8509 462.5239 L 454.0574 462.3131 L 452.2792 460.8906 L 451.0937 456.5175 L 448.13 457.3078 L 443.1906 459.5734 L 439.3971 460.4164 L 437.7769 463.683 L 435.485 464.8948 L 429.6762 465.0002 L 426.8706 464.2099 L 423.7884 461.4174 L 415.7272 461.2067 L 411.9337 462.0497 L 409.0886 461.2067 L 406.6386 462.0497 L 404.5838 460.1002 L 403.3983 462.4712 L 401.9758 459.7841 L 399.8814 461.0486 L 399.8024 471.27 L 391.4251 471.2173 L 383.9171 475.1689 L 383.522 479.7 L 380.8349 478.857 L 381.9809 475.9065 L 379.4519 472.0076 L 380.5978 475.485 L 379.4124 477.3817 L 375.3027 474.7474 L 374.9076 472.8506 L 374.1963 476.0646 L 368.4665 476.2226 L 366.0561 473.2194 L 364.4754 473.6409 L 364.9496 470.7958 L 363.369 470.3216 L 360.6029 467.6872 L 359.1013 464.0518 L 358.7457 459.468 L 360.9586 459.0465 L 358.3505 458.2035 L 355.2288 448.8778 L 357.9949 446.5069 L 355.782 445.9273 L 354.7941 444.452 L 353.1345 445.3477 L 349.6176 443.1349 L 347.4837 442.8714 L 341.7144 443.3983 L 342.4257 441.4489 L 346.97 437.8661 L 349.9732 436.8124 L 351.7514 433.0715 L 354.9127 429.4888 L 355.9006 425.063 L 357.4021 422.4814 L 361.7489 417.1072 L 363.7246 411.1535 L 364.0803 405.2525 L 363.7246 403.2504 L 356.6909 389.6044 L 356.0191 386.0216 L 355.9796 364.5251 L 357.2836 358.8875 L 359.7336 354.1457 L 361.7094 351.6167 L 363.4085 347.8758 L 364.515 347.2436 L 371.2326 345.9791 L 377.9503 342.9759 L 380.0446 340.1308 L 387.9082 333.9663 L 390.8324 332.5438 L 392.2154 330.2255 L 393.9541 329.2245 L 396.7992 328.8557 L 401.5411 329.1718 L 418.2957 328.4868 L 421.2199 327.1697 L 423.9465 327.5385 L 424.4997 328.5395 L 427.898 329.0664 L 429.7553 331.2793 L 430.1504 333.3868 L 432.5609 340.2362 L 434.7342 343.7135 L 440.6221 347.0855 Z" fill="#000" fill-opacity="1" stroke="#000" stroke-width="0" paint-order="fill" stroke-opacity="1" stroke-dasharray="" stroke-linecap="butt" stroke-linejoin="miter" stroke-miterlimit="10" transform="matrix(1.100000023841858,0,0,1.100000023841858,-40.000003814697266,-26.649999618530273)" clip-path="none" style="filter: url(#f1)"/>
<path d="M 418.2957 328.4868 L 401.5411 329.1718 L 396.7992 328.8557 L 393.9541 329.2245 L 392.2154 330.2255 L 390.8324 332.5438 L 387.9082 333.9663 L 380.0446 340.1308 L 377.9503 342.9759 L 371.2326 345.9791 L 364.515 347.2436 L 363.4085 347.8758 L 361.7094 351.6167 L 359.7336 354.1457 L 357.2836 358.8875 L 355.9796 364.5251 L 356.0191 386.0216 L 356.6909 389.6044 L 363.7246 403.2504 L 364.0803 405.2525 L 363.7246 411.1535 L 361.7489 417.1072 L 357.4021 422.4814 L 355.9006 425.063 L 354.9127 429.4888 L 351.7514 433.0715 L 349.9732 436.8124 L 346.97 437.8661 L 342.4257 441.4489 L 341.7935 440.8693 L 342.3862 435.3371 L 343.5322 432.3339 L 342.9789 430.7533 L 338.2371 426.4329 L 339.383 424.4835 L 337.8814 421.5857 L 335.2734 419.004 L 330.2154 418.4771 L 328.0816 419.3728 L 325.4735 422.6921 L 328.8323 422.2706 L 330.1759 420.6373 L 332.3888 420.3739 L 335.7476 423.5878 L 336.4589 425.2738 L 332.9815 423.1663 L 329.9388 422.8502 L 318.7559 424.3254 L 313.4213 426.4856 L 305.5972 424.8523 L 300.9738 425.3792 L 298.7214 427.6447 L 295.5207 426.9598 L 288.882 426.3275 L 286.353 426.6964 L 284.8119 430.0684 L 285.9579 431.0167 L 282.8362 431.0694 L 283.666 429.3307 L 280.6233 427.7501 L 278.3314 429.0146 L 276.158 427.3286 L 268.65 425.4319 L 268.7291 422.376 L 267.4646 422.8502 L 267.8992 425.063 L 264.3824 425.3265 L 260.4703 423.8512 L 256.6768 423.4297 L 253.8712 423.9039 L 251.3027 426.3802 L 251.6188 429.278 L 248.1414 428.0135 L 246.1657 428.1716 L 242.5302 426.8544 L 238.1835 427.8555 L 230.9521 426.1695 L 222.5748 425.8534 L 222.8514 427.3286 L 220.7176 427.434 L 218.6233 428.9619 L 219.5716 431.1748 L 216.0547 430.6479 L 217.8725 429.3307 L 216.1733 427.0125 L 213.0911 426.6437 L 210.5226 428.3297 L 211.5104 430.121 L 205.346 429.963 L 204.2791 431.9651 L 200.6436 431.7544 L 202.6194 427.0125 L 197.1663 426.3275 L 198.2332 423.7459 L 199.4582 413.3664 L 200.4066 411.9965 L 200.209 408.4665 L 203.1726 406.4644 L 205.1484 396.0322 L 206.6105 393.7667 L 213.4072 391.8172 L 214.3556 389.9732 L 217.7144 390.9215 L 219.295 386.1797 L 223.2466 384.3883 L 227.9885 384.1249 L 232.5328 382.3335 L 243.3996 383.4399 L 244.427 381.5959 L 244.8221 377.012 L 247.2326 375.2207 L 246.4818 373.5874 L 246.4818 369.9519 L 247.4697 368.1079 L 249.0898 368.1079 L 247.3511 364.7885 L 245.0197 363.4187 L 238.0649 364.4724 L 234.7456 363.9982 L 233.6787 360.0467 L 235.5755 355.4102 L 235.1408 344.7673 L 234.1529 339.4985 L 235.3384 332.7018 L 234.6666 331.1212 L 230.0828 331.8588 L 227.1981 327.8546 L 224.5111 325.4837 L 215.9757 322.8493 L 211.7475 320.7945 L 205.5436 313.629 L 203.3702 309.8355 L 201.6315 303.0388 L 199.5767 300.7205 L 197.9566 297.2432 L 198.0751 293.4497 L 196.5735 292.2905 L 185.6277 277.1692 L 186.4575 277.5907 L 226.6054 293.6077 L 229.411 294.3453 L 259.4034 293.0282 L 270.3492 295.7152 L 273.4314 297.1905 L 275.9209 294.1873 L 284.3377 291.8163 L 293.703 292.2378 L 299.5908 293.3443 L 331.4404 284.9143 L 335.471 281.1735 L 332.3888 278.3283 L 332.7444 276.2208 L 334.6016 272.6908 L 335.3129 265.9995 L 333.9694 260.7307 L 336.854 250.6674 L 341.833 249.0341 L 344.9547 245.7675 L 345.9426 242.2374 L 349.7756 239.7084 L 352.6208 238.602 L 354.5965 238.8127 L 354.7151 240.9729 L 358.311 241.1836 L 363.369 242.132 L 370.2447 240.2353 L 374.2358 238.4966 L 374.789 236.3891 L 371.6278 236.3364 L 370.1657 235.3353 L 369.4544 232.0687 L 373.6826 232.0687 L 377.5551 228.8021 L 379.8075 228.9075 L 382.2575 227.1688 L 385.3002 222.8484 L 387.8687 224.7978 L 390.5558 224.9032 L 394.3097 226.115 L 395.6928 225.2193 L 392.2154 224.271 L 395.1001 223.0065 L 399.0516 224.5871 L 401.7782 229.487 L 403.5169 229.9085 L 407.8241 228.4333 L 410.7482 225.7462 L 413.6724 221.1624 L 415.7272 219.2656 L 416.5966 219.6345 L 422.8795 219.0022 L 426.515 215.8936 L 429.5182 215.5248 L 429.3996 217.8958 L 430.7827 218.9495 L 430.9407 222.1108 L 432.8375 220.7936 L 432.1657 232.6483 L 434.1415 233.8074 L 435.5641 238.8127 L 436.3939 235.8095 L 438.6858 235.4934 L 440.3059 233.4913 L 441.3729 236.4418 L 440.7011 243.5019 L 440.9777 246.5578 L 440.6616 252.8276 L 437.856 257.991 L 436.631 258.4651 L 436.4334 262.1533 L 434.1415 266.1575 L 432.956 271.7951 L 433.6673 273.4284 L 435.8407 272.6908 L 433.9439 276.8004 L 433.4302 279.6982 L 430.7432 286.0207 L 427.5029 289.8142 L 424.8553 290.4992 L 423.2352 298.0335 L 425.9222 299.8248 L 426.4755 302.8807 L 428.0166 303.3549 L 427.0682 308.0968 L 421.9707 314.2085 L 422.2868 317.7386 L 420.6667 321.9009 L 416.8732 326.2213 L 418.2957 328.4868 Z" fill="#000" fill-opacity="1" stroke="#000" stroke-width="0" paint-order="fill" stroke-opacity="1" stroke-dasharray="" stroke-linecap="butt" stroke-linejoin="miter" stroke-miterlimit="10" transform="matrix(1.100000023841858,0,0,1.100000023841858,-40.000003814697266,-26.649999618530273)" clip-path="none" style="filter: url(#f1)"/>
<path d="M 542.9675 116.2089 L 547.8675 114.7863 L 549.3691 115.2605 L 552.5698 120.3185 L 556.9956 122.8475 L 560.3939 123.9013 L 563.9503 123.1636 L 566.3213 122.0045 L 568.2575 124.0066 L 568.9688 127.0625 L 568.3761 129.0119 L 563.0415 129.5915 L 553.8343 128.2743 L 547.1562 126.2195 L 543.9159 126.2722 L 539.7668 128.9593 L 535.6967 129.8549 L 534.6297 130.7506 L 534.9459 133.1743 L 533.3652 134.8076 L 533.0096 136.7043 L 531.3104 139.5494 L 532.1403 140.8666 L 535.6572 141.4462 L 537.3563 144.7655 L 534.5902 148.4536 L 536.2894 150.7192 L 538.8579 150.3504 L 540.7942 150.7719 L 543.6393 150.2977 L 544.8643 151.8256 L 544.1135 153.8278 L 541.6635 155.7245 L 538.8974 156.3568 L 537.4749 158.675 L 537.6329 162.1524 L 542.0982 165.0502 L 542.6119 166.7889 L 541.4659 171.5834 L 538.8579 174.1125 L 539.016 177.063 L 543.2046 181.1726 L 546.682 182.0156 L 547.7489 183.122 L 548.3022 186.336 L 547.8675 187.8639 L 538.8184 183.6489 L 536.7636 181.8048 L 534.5507 182.4371 L 529.1371 179.1705 L 529.7298 176.9049 L 528.3468 175.3243 L 528.3072 172.5845 L 527.4774 170.8985 L 528.7814 168.791 L 528.5443 164.8921 L 527.2008 163.3642 L 527.7145 160.7298 L 526.7266 157.7266 L 526.9242 154.3546 L 525.1855 151.3514 L 523.6839 143.1322 L 521.5896 139.8656 L 522.5775 134.0173 L 526.0549 132.8581 L 527.1218 133.5958 L 527.596 130.2764 L 528.8605 127.4313 L 530.283 126.1668 L 533.4838 125.4819 L 536.6846 123.2163 L 538.7394 118.7379 L 537.791 117.7895 L 539.2136 115.9981 L 539.2136 115.9981 L 539.2136 115.9981 L 539.5692 115.9981 L 542.9675 116.2089 Z" fill="#000" fill-opacity="1" stroke="#000" stroke-width="0" paint-order="fill" stroke-opacity="1" stroke-dasharray="" stroke-linecap="butt" stroke-linejoin="miter" stroke-miterlimit="10" transform="matrix(1.100000023841858,0,0,1.100000023841858,-40.000003814697266,-26.649999618530273)" clip-path="none" style="filter: url(#f1)"/>
<path d="M 542.9675 116.2089 L 539.2136 115.9981 L 533.9185 113.153 L 530.0854 112.1519 L 528.979 112.9949 L 527.7145 109.9918 L 528.5443 106.4617 L 529.9274 105.4606 L 529.1766 102.9316 L 525.8573 102.6155 L 522.696 103.037 L 520.2461 102.7209 L 513.0147 97.7156 L 513.2123 93.9748 L 511.5131 92.6576 L 506.0995 92.9737 L 504.4793 94.1328 L 500.6463 93.8167 L 497.0109 92.3414 L 498.71 88.8641 L 497.1294 86.0716 L 497.8802 81.962 L 498.9076 80.6448 L 501.081 80.5921 L 505.8229 76.2191 L 505.8229 74.4804 L 508.1148 73.9535 L 510.8018 69.6331 L 510.2486 66.5772 L 512.8171 65.4181 L 513.7655 66.0504 L 518.6654 64.5751 L 523.3283 64.9439 L 525.5016 65.7342 L 526.4105 64.9966 L 530.2435 65.2601 L 530.0064 62.9418 L 526.1734 61.0977 L 525.8968 59.7279 L 529.7693 60.2021 L 531.9032 61.4139 L 535.6176 61.2031 L 536.0523 59.3064 L 538.4628 58.9902 L 542.849 55.6182 L 544.9038 55.3548 L 546.4844 56.4612 L 546.524 54.5118 L 549.4481 53.3 L 550.9497 54.4591 L 552.8069 54.3537 L 555.0198 57.6731 L 555.8496 55.829 L 560.552 54.5645 L 563.0415 55.7763 L 567.0326 56.6193 L 568.218 58.1472 L 568.8503 61.8354 L 570.9841 62.5203 L 572.8414 60.9397 L 574.8567 61.2031 L 578.5711 63.0472 L 580.8235 65.0493 L 583.7477 69.8439 L 583.9453 74.9546 L 585.2493 77.1147 L 584.459 79.3276 L 582.4832 81.5932 L 583.3525 83.648 L 585.0122 84.6491 L 586.988 84.6491 L 588.45 86.1243 L 589.3194 89.7071 L 590.0702 90.2866 L 593.7846 89.9178 L 596.037 89.0748 L 599.3168 86.4931 L 600.1071 87.6523 L 600.5418 91.2877 L 603.3079 92.2361 L 606.074 94.1328 L 614.3723 110.624 L 613.7796 114.6283 L 611.5667 116.8938 L 607.9312 116.8411 L 607.22 120.4766 L 605.0466 122.9529 L 602.5176 123.8486 L 600.4628 122.9529 L 598.5265 123.3217 L 595.0887 125.6926 L 591.5323 126.6937 L 588.9637 126.3776 L 587.7783 128.1689 L 582.9574 132.3313 L 578.6897 132.7528 L 571.7349 131.3302 L 568.3761 129.0119 L 568.9688 127.0625 L 568.2575 124.0066 L 566.3213 122.0045 L 563.9503 123.1636 L 560.3939 123.9013 L 556.9956 122.8475 L 552.5698 120.3185 L 549.3691 115.2605 L 547.8675 114.7863 L 542.9675 116.2089 Z" fill="#000" fill-opacity="1" stroke="#000" stroke-width="0" paint-order="fill" stroke-opacity="1" stroke-dasharray="" stroke-linecap="butt" stroke-linejoin="miter" stroke-miterlimit="10" transform="matrix(1.100000023841858,0,0,1.100000023841858,-40.000003814697266,-26.649999618530273)" clip-path="none" style="filter: url(#f1)"/>
<path d="M 539.2136 115.9981 L 537.791 117.7895 L 538.7394 118.7379 L 536.6846 123.2163 L 533.4838 125.4819 L 530.283 126.1668 L 528.8605 127.4313 L 527.596 130.2764 L 527.1218 133.5958 L 526.0549 132.8581 L 522.5775 134.0173 L 521.5896 139.8656 L 523.6839 143.1322 L 525.1855 151.3514 L 521.0759 153.0374 L 519.9694 156.0406 L 516.9663 158.0428 L 515.2276 158.2008 L 512.7776 159.3599 L 510.1301 160.8879 L 507.9567 159.9922 L 508.6285 157.9374 L 505.8624 153.9858 L 503.8866 156.7256 L 501.8318 156.1987 L 502.8197 154.7761 L 500.6068 154.1966 L 499.3423 151.931 L 496.8923 152.3525 L 494.798 153.9858 L 491.9924 154.8288 L 492.0319 160.2556 L 488.1594 159.6234 L 486.4997 161.0459 L 485.3538 164.1545 L 484.8796 168.0534 L 483.0223 171.3727 L 479.4659 173.006 L 478.5966 176.7995 L 479.9006 178.3801 L 478.6756 182.964 L 475.949 180.6457 L 475.6724 178.907 L 471.3652 177.221 L 470.9306 178.3801 L 472.5507 183.1747 L 471.7209 184.5973 L 468.0854 184.7553 L 465.0427 186.3886 L 463.225 191.8681 L 464.8451 197.6638 L 467.4532 198.3487 L 467.8088 201.1411 L 468.8362 199.7713 L 469.8241 203.0906 L 468.204 206.0411 L 466.8604 211.0991 L 463.9363 214.313 L 463.6992 215.9463 L 460.7355 220.1613 L 458.3646 226.1677 L 457.2581 231.173 L 458.088 232.5956 L 457.7323 235.1773 L 456.5469 236.1256 L 455.3219 239.3396 L 453.8203 238.4439 L 452.0421 239.1288 L 449.7502 238.4439 L 446.668 239.603 L 445.2454 240.9729 L 439.8713 223.2699 L 439.9503 220.899 L 438.8834 217.4743 L 437.8165 216.5786 L 436.1963 211.5733 L 439.9898 207.6217 L 441.7285 207.6217 L 445.443 203.7755 L 446.3913 201.2992 L 448.9599 202.2476 L 449.434 200.9304 L 443.9414 194.3445 L 443.9809 190.9725 L 446.4309 187.0736 L 447.0236 184.9661 L 448.2486 183.965 L 450.6195 184.1231 L 454.7687 182.2263 L 456.784 179.592 L 454.9267 178.4855 L 452.1606 178.2221 L 452.1606 177.3791 L 449.2365 176.5888 L 448.1695 174.1651 L 446.4704 172.9533 L 450.3034 170.5297 L 452.9509 169.7921 L 453.5042 167.0523 L 459.7476 167.7373 L 462.7113 166.3147 L 463.6992 164.6814 L 463.5016 161.7309 L 465.0822 162.3631 L 468.5991 165.1029 L 471.6023 164.5233 L 475.6329 164.7341 L 476.7393 165.419 L 474.8821 166.9996 L 477.016 167.5792 L 481.8369 164.7868 L 480.5328 163.8384 L 482.232 160.5718 L 480.4143 159.9395 L 478.7942 158.3062 L 478.0434 159.8868 L 475.4353 161.6782 L 473.341 161.7836 L 472.7878 159.2019 L 470.891 157.5159 L 469.4685 153.7224 L 469.3894 149.7181 L 468.5991 148.3483 L 470.6144 147.7687 L 473.3015 145.1343 L 473.341 143.3956 L 477.3321 139.4441 L 475.9095 136.3355 L 476.8184 133.6484 L 478.8337 132.3313 L 479.3869 128.5378 L 477.1345 128.0109 L 475.3563 128.8539 L 474.1708 128.327 L 473.5386 126.1668 L 471.9184 125.5873 L 470.5749 123.7959 L 472.1951 121.5303 L 472.0765 119.5282 L 474.487 117.3153 L 475.1982 115.2605 L 472.4321 112.2046 L 474.7241 108.095 L 473.6176 106.1456 L 473.8547 104.3015 L 471.0096 101.9833 L 471.8789 100.1392 L 469.1128 94.6597 L 467.1371 91.9199 L 465.0032 91.1823 L 462.6323 88.9168 L 464.0153 86.3351 L 466.3863 83.9114 L 467.9669 83.2792 L 470.3378 80.6448 L 472.3531 79.6964 L 471.9184 78.8007 L 474.0128 75.4814 L 476.7789 77.4836 L 478.2409 77.0094 L 477.6087 74.7438 L 480.1772 74.0589 L 484.4844 70.16 L 487.4876 68.9482 L 486.9739 67.4202 L 488.4755 66.6299 L 494.4819 65.4181 L 497.2084 63.3106 L 500.4882 62.6784 L 504.7954 62.6784 L 506.7317 61.9407 L 512.8566 60.887 L 520.8388 60.4655 L 525.8968 59.7279 L 526.1734 61.0977 L 530.0064 62.9418 L 530.2435 65.2601 L 526.4105 64.9966 L 525.5016 65.7342 L 523.3283 64.9439 L 518.6654 64.5751 L 513.7655 66.0504 L 512.8171 65.4181 L 510.2486 66.5772 L 510.8018 69.6331 L 508.1148 73.9535 L 505.8229 74.4804 L 505.8229 76.2191 L 501.081 80.5921 L 498.9076 80.6448 L 497.8802 81.962 L 497.1294 86.0716 L 498.71 88.8641 L 497.0109 92.3414 L 500.6463 93.8167 L 504.4793 94.1328 L 506.0995 92.9737 L 511.5131 92.6576 L 513.2123 93.9748 L 513.0147 97.7156 L 520.2461 102.7209 L 522.696 103.037 L 525.8573 102.6155 L 529.1766 102.9316 L 529.9274 105.4606 L 528.5443 106.4617 L 527.7145 109.9918 L 528.979 112.9949 L 530.0854 112.1519 L 533.9185 113.153 L 539.2136 115.9981 L 539.2136 115.9981 L 539.2136 115.9981 Z" fill="#000" fill-opacity="1" stroke="#000" stroke-width="0" paint-order="fill" stroke-opacity="1" stroke-dasharray="" stroke-linecap="butt" stroke-linejoin="miter" stroke-miterlimit="10" transform="matrix(1.100000023841858,0,0,1.100000023841858,-40.000003814697266,-26.649999618530273)" clip-path="none" style="filter: url(#f1)"/>
<path d="M 440.9777 246.5578 L 440.7011 243.5019 L 441.3729 236.4418 L 440.3059 233.4913 L 438.6858 235.4934 L 436.3939 235.8095 L 435.5641 238.8127 L 434.1415 233.8074 L 432.1657 232.6483 L 432.8375 220.7936 L 430.9407 222.1108 L 430.7827 218.9495 L 429.3996 217.8958 L 429.5182 215.5248 L 426.515 215.8936 L 422.8795 219.0022 L 416.5966 219.6345 L 415.7272 219.2656 L 414.3837 213.312 L 414.8184 207.9378 L 413.7514 204.0916 L 415.174 200.6143 L 417.2288 199.4551 L 419.0465 196.3466 L 417.624 193.0273 L 420.2715 190.3402 L 420.0344 185.9671 L 422.0892 183.3855 L 425.7247 183.2274 L 427.9771 182.121 L 430.8222 182.9113 L 434.3391 181.2253 L 435.2084 179.592 L 437.2237 179.3812 L 441.61 175.535 L 441.3729 173.5329 L 437.8955 169.634 L 438.2511 165.4717 L 436.5915 162.6793 L 432.6794 161.8889 L 429.5972 155.9353 L 430.8222 153.1428 L 433.7463 152.7213 L 442.2422 155.3557 L 447.3002 155.8826 L 456.1122 154.8815 L 456.6654 153.5643 L 458.4831 153.5643 L 461.2887 151.931 L 462.2371 148.8751 L 462.0395 145.3451 L 462.6323 142.3419 L 460.775 141.3408 L 458.6412 138.8645 L 458.246 136.8624 L 461.0516 136.0194 L 461.3678 132.3313 L 464.45 129.9076 L 466.5838 125.8507 L 470.5749 123.7959 L 471.9184 125.5873 L 473.5386 126.1668 L 474.1708 128.327 L 475.3563 128.8539 L 477.1345 128.0109 L 479.3869 128.5378 L 478.8337 132.3313 L 476.8184 133.6484 L 475.9095 136.3355 L 477.3321 139.4441 L 473.341 143.3956 L 473.3015 145.1343 L 470.6144 147.7687 L 468.5991 148.3483 L 469.3894 149.7181 L 469.4685 153.7224 L 470.891 157.5159 L 472.7878 159.2019 L 473.341 161.7836 L 475.4353 161.6782 L 478.0434 159.8868 L 478.7942 158.3062 L 480.4143 159.9395 L 482.232 160.5718 L 480.5328 163.8384 L 481.8369 164.7868 L 477.016 167.5792 L 474.8821 166.9996 L 476.7393 165.419 L 475.6329 164.7341 L 471.6023 164.5233 L 468.5991 165.1029 L 465.0822 162.3631 L 463.5016 161.7309 L 463.6992 164.6814 L 462.7113 166.3147 L 459.7476 167.7373 L 453.5042 167.0523 L 452.9509 169.7921 L 450.3034 170.5297 L 446.4704 172.9533 L 448.1695 174.1651 L 449.2365 176.5888 L 452.1606 177.3791 L 452.1606 178.2221 L 454.9267 178.4855 L 456.784 179.592 L 454.7687 182.2263 L 450.6195 184.1231 L 448.2486 183.965 L 447.0236 184.9661 L 446.4309 187.0736 L 443.9809 190.9725 L 443.9414 194.3445 L 449.434 200.9304 L 448.9599 202.2476 L 446.3913 201.2992 L 445.443 203.7755 L 441.7285 207.6217 L 439.9898 207.6217 L 436.1963 211.5733 L 437.8165 216.5786 L 438.8834 217.4743 L 439.9503 220.899 L 439.8713 223.2699 L 445.2454 240.9729 L 445.3639 242.7643 L 441.61 243.9761 L 440.9777 246.5578 Z" fill="#000" fill-opacity="1" stroke="#000" stroke-width="0" paint-order="fill" stroke-opacity="1" stroke-dasharray="" stroke-linecap="butt" stroke-linejoin="miter" stroke-miterlimit="10" transform="matrix(1.100000023841858,0,0,1.100000023841858,-40.000003814697266,-26.649999618530273)" clip-path="none" style="filter: url(#f1)"/>
<path d="M 515.2276 158.2008 L 517.5985 159.2019 L 520.4436 161.7309 L 518.4679 166.1039 L 517.0848 167.8953 L 514.7929 167.0523 L 515.0695 165.8405 L 513.3703 163.8911 L 509.6559 165.7351 L 507.4035 164.7341 L 507.1664 163.0481 L 510.1301 160.8879 L 512.7776 159.3599 L 515.2276 158.2008 Z" fill="#000" fill-opacity="1" stroke="#000" stroke-width="0" paint-order="fill" stroke-opacity="1" stroke-dasharray="" stroke-linecap="butt" stroke-linejoin="miter" stroke-miterlimit="10" transform="matrix(1.100000023841858,0,0,1.100000023841858,-40.000003814697266,-26.649999618530273)" clip-path="none" style="filter: url(#f1)"/>
<path d="M 510.1301 160.8879 L 507.1664 163.0481 L 507.4035 164.7341 L 509.6559 165.7351 L 513.3703 163.8911 L 515.0695 165.8405 L 514.7929 167.0523 L 517.0848 167.8953 L 518.4679 166.1039 L 520.4436 161.7309 L 517.5985 159.2019 L 515.2276 158.2008 L 516.9663 158.0428 L 519.9694 156.0406 L 521.0759 153.0374 L 525.1855 151.3514 L 526.9242 154.3546 L 526.7266 157.7266 L 527.7145 160.7298 L 527.2008 163.3642 L 528.5443 164.8921 L 528.7814 168.791 L 527.4774 170.8985 L 528.3072 172.5845 L 528.3468 175.3243 L 529.7298 176.9049 L 529.1371 179.1705 L 534.5507 182.4371 L 536.7636 181.8048 L 538.8184 183.6489 L 547.8675 187.8639 L 548.2626 189.2865 L 550.5941 188.9176 L 553.3602 190.0241 L 555.7706 189.0757 L 557.5488 187.0736 L 556.4819 194.8713 L 557.5093 197.6638 L 559.248 198.7702 L 562.2117 198.138 L 564.1084 198.981 L 567.1511 198.138 L 571.8535 200.0874 L 575.4889 202.5637 L 576.4373 204.0916 L 574.9357 207.7798 L 572.3277 208.5701 L 571.814 209.94 L 568.2575 209.7819 L 566.0842 211.9948 L 562.7254 212.4163 L 561.6584 215.1033 L 559.3665 214.9453 L 558.6948 216.4732 L 556.0077 218.6334 L 554.19 222.7957 L 556.1262 225.8516 L 557.9045 231.2784 L 555.9682 235.7041 L 555.494 239.8138 L 556.8375 241.8159 L 559.7222 242.4481 L 558.2206 243.3965 L 556.1658 246.5051 L 554.5456 246.8739 L 553.0835 248.876 L 551.1473 248.7706 L 549.6062 252.3534 L 546.9981 256.4103 L 544.232 258.834 L 544.3506 260.7834 L 542.928 261.521 L 541.2684 264.2081 L 538.7394 266.6844 L 541.3869 269.4768 L 541.7426 271.7424 L 536.3684 276.4316 L 531.4685 277.7488 L 526.4895 280.6993 L 523.1702 293.1862 L 518.5469 303.0915 L 514.6744 309.7301 L 500.6463 317.7386 L 497.2875 322.217 L 495.8649 328.5922 L 494.6004 331.5427 L 490.2537 335.5997 L 487.6852 339.8147 L 486.9344 344.5038 L 478.6756 347.2436 L 471.7604 347.6124 L 467.3346 348.9296 L 460.8146 352.3543 L 458.5226 352.9338 L 455.1638 351.722 L 453.188 348.1393 L 452.9114 345.7157 L 450.8566 343.6082 L 447.972 342.3437 L 444.8502 343.292 L 440.6221 347.0855 L 434.7342 343.7135 L 432.5609 340.2362 L 430.1504 333.3868 L 429.7553 331.2793 L 427.898 329.0664 L 424.4997 328.5395 L 423.9465 327.5385 L 421.2199 327.1697 L 418.2957 328.4868 L 416.8732 326.2213 L 420.6667 321.9009 L 422.2868 317.7386 L 421.9707 314.2085 L 427.0682 308.0968 L 428.0166 303.3549 L 426.4755 302.8807 L 425.9222 299.8248 L 423.2352 298.0335 L 424.8553 290.4992 L 427.5029 289.8142 L 430.7432 286.0207 L 433.4302 279.6982 L 433.9439 276.8004 L 435.8407 272.6908 L 433.6673 273.4284 L 432.956 271.7951 L 434.1415 266.1575 L 436.4334 262.1533 L 436.631 258.4651 L 437.856 257.991 L 440.6616 252.8276 L 440.9777 246.5578 L 441.61 243.9761 L 445.3639 242.7643 L 445.2454 240.9729 L 446.668 239.603 L 449.7502 238.4439 L 452.0421 239.1288 L 453.8203 238.4439 L 455.3219 239.3396 L 456.5469 236.1256 L 457.7323 235.1773 L 458.088 232.5956 L 457.2581 231.173 L 458.3646 226.1677 L 460.7355 220.1613 L 463.6992 215.9463 L 463.9363 214.313 L 466.8604 211.0991 L 468.204 206.0411 L 469.8241 203.0906 L 468.8362 199.7713 L 467.8088 201.1411 L 467.4532 198.3487 L 464.8451 197.6638 L 463.225 191.8681 L 465.0427 186.3886 L 468.0854 184.7553 L 471.7209 184.5973 L 472.5507 183.1747 L 470.9306 178.3801 L 471.3652 177.221 L 475.6724 178.907 L 475.949 180.6457 L 478.6756 182.964 L 479.9006 178.3801 L 478.5966 176.7995 L 479.4659 173.006 L 483.0223 171.3727 L 484.8796 168.0534 L 485.3538 164.1545 L 486.4997 161.0459 L 488.1594 159.6234 L 492.0319 160.2556 L 491.9924 154.8288 L 494.798 153.9858 L 496.8923 152.3525 L 499.3423 151.931 L 500.6068 154.1966 L 502.8197 154.7761 L 501.8318 156.1987 L 503.8866 156.7256 L 505.8624 153.9858 L 508.6285 157.9374 L 507.9567 159.9922 L 510.1301 160.8879 Z" fill="#000" fill-opacity="1" stroke="#000" stroke-width="0" paint-order="fill" stroke-opacity="1" stroke-dasharray="" stroke-linecap="butt" stroke-linejoin="miter" stroke-miterlimit="10" transform="matrix(1.100000023841858,0,0,1.100000023841858,-40.000003814697266,-26.649999618530273)" clip-path="none" style="filter: url(#f1)"/>
<path d="M 440.6221 347.0855 L 437.935 350.2468 L 435.9592 356.3585 L 432.956 359.6252 L 431.2964 362.4176 L 423.7489 369.425 L 421.8521 373.8508 L 420.7062 381.4905 L 421.8126 383.8087 L 426.1593 385.6001 L 430.5456 388.6033 L 437.3028 388.2872 L 440.1874 390.1312 L 440.3059 395.1365 L 439.5551 401.1956 L 438.0535 403.7773 L 437.6979 407.5181 L 439.16 410.6267 L 441.9656 413.6299 L 443.4277 416.4223 L 446.1147 417.1599 L 453.7808 416.1589 L 454.5316 418.319 L 454.2945 424.6942 L 456.5469 429.2254 L 460.4589 433.8619 L 461.4863 438.1822 L 466.4653 448.1929 L 464.0153 449.5627 L 463.4226 451.3541 L 464.0943 455.0949 L 467.1371 456.7282 L 464.7266 458.5196 L 462.4347 458.3616 L 460.3008 460.2056 L 460.775 461.2594 L 457.8509 462.5239 L 454.0574 462.3131 L 452.2792 460.8906 L 451.0937 456.5175 L 448.13 457.3078 L 443.1906 459.5734 L 439.3971 460.4164 L 437.7769 463.683 L 435.485 464.8948 L 429.6762 465.0002 L 426.8706 464.2099 L 423.7884 461.4174 L 415.7272 461.2067 L 411.9337 462.0497 L 409.0886 461.2067 L 406.6386 462.0497 L 404.5838 460.1002 L 403.3983 462.4712 L 401.9758 459.7841 L 399.8814 461.0486 L 399.8024 471.27 L 391.4251 471.2173 L 383.9171 475.1689 L 383.522 479.7 L 380.8349 478.857 L 381.9809 475.9065 L 379.4519 472.0076 L 380.5978 475.485 L 379.4124 477.3817 L 375.3027 474.7474 L 374.9076 472.8506 L 374.1963 476.0646 L 368.4665 476.2226 L 366.0561 473.2194 L 364.4754 473.6409 L 364.9496 470.7958 L 363.369 470.3216 L 360.6029 467.6872 L 359.1013 464.0518 L 358.7457 459.468 L 360.9586 459.0465 L 358.3505 458.2035 L 355.2288 448.8778 L 357.9949 446.5069 L 355.782 445.9273 L 354.7941 444.452 L 353.1345 445.3477 L 349.6176 443.1349 L 347.4837 442.8714 L 341.7144 443.3983 L 342.4257 441.4489 L 346.97 437.8661 L 349.9732 436.8124 L 351.7514 433.0715 L 354.9127 429.4888 L 355.9006 425.063 L 357.4021 422.4814 L 361.7489 417.1072 L 363.7246 411.1535 L 364.0803 405.2525 L 363.7246 403.2504 L 356.6909 389.6044 L 356.0191 386.0216 L 355.9796 364.5251 L 357.2836 358.8875 L 359.7336 354.1457 L 361.7094 351.6167 L 363.4085 347.8758 L 364.515 347.2436 L 371.2326 345.9791 L 377.9503 342.9759 L 380.0446 340.1308 L 387.9082 333.9663 L 390.8324 332.5438 L 392.2154 330.2255 L 393.9541 329.2245 L 396.7992 328.8557 L 401.5411 329.1718 L 418.2957 328.4868 L 421.2199 327.1697 L 423.9465 327.5385 L 424.4997 328.5395 L 427.898 329.0664 L 429.7553 331.2793 L 430.1504 333.3868 L 432.5609 340.2362 L 434.7342 343.7135 L 440.6221 347.0855 Z" fill="#9c1529" fill-opacity="1" stroke="#000000" stroke-width="0.3636363557547579" paint-order="fill" stroke-opacity="1" stroke-dasharray="" stroke-linecap="butt" stroke-linejoin="miter" stroke-miterlimit="10" transform="matrix(1.100000023841858,0,0,1.100000023841858,-40.000003814697266,-26.649999618530273)" clip-path="none"/>
<path d="M 418.2957 328.4868 L 401.5411 329.1718 L 396.7992 328.8557 L 393.9541 329.2245 L 392.2154 330.2255 L 390.8324 332.5438 L 387.9082 333.9663 L 380.0446 340.1308 L 377.9503 342.9759 L 371.2326 345.9791 L 364.515 347.2436 L 363.4085 347.8758 L 361.7094 351.6167 L 359.7336 354.1457 L 357.2836 358.8875 L 355.9796 364.5251 L 356.0191 386.0216 L 356.6909 389.6044 L 363.7246 403.2504 L 364.0803 405.2525 L 363.7246 411.1535 L 361.7489 417.1072 L 357.4021 422.4814 L 355.9006 425.063 L 354.9127 429.4888 L 351.7514 433.0715 L 349.9732 436.8124 L 346.97 437.8661 L 342.4257 441.4489 L 341.7935 440.8693 L 342.3862 435.3371 L 343.5322 432.3339 L 342.9789 430.7533 L 338.2371 426.4329 L 339.383 424.4835 L 337.8814 421.5857 L 335.2734 419.004 L 330.2154 418.4771 L 328.0816 419.3728 L 325.4735 422.6921 L 328.8323 422.2706 L 330.1759 420.6373 L 332.3888 420.3739 L 335.7476 423.5878 L 336.4589 425.2738 L 332.9815 423.1663 L 329.9388 422.8502 L 318.7559 424.3254 L 313.4213 426.4856 L 305.5972 424.8523 L 300.9738 425.3792 L 298.7214 427.6447 L 295.5207 426.9598 L 288.882 426.3275 L 286.353 426.6964 L 284.8119 430.0684 L 285.9579 431.0167 L 282.8362 431.0694 L 283.666 429.3307 L 280.6233 427.7501 L 278.3314 429.0146 L 276.158 427.3286 L 268.65 425.4319 L 268.7291 422.376 L 267.4646 422.8502 L 267.8992 425.063 L 264.3824 425.3265 L 260.4703 423.8512 L 256.6768 423.4297 L 253.8712 423.9039 L 251.3027 426.3802 L 251.6188 429.278 L 248.1414 428.0135 L 246.1657 428.1716 L 242.5302 426.8544 L 238.1835 427.8555 L 230.9521 426.1695 L 222.5748 425.8534 L 222.8514 427.3286 L 220.7176 427.434 L 218.6233 428.9619 L 219.5716 431.1748 L 216.0547 430.6479 L 217.8725 429.3307 L 216.1733 427.0125 L 213.0911 426.6437 L 210.5226 428.3297 L 211.5104 430.121 L 205.346 429.963 L 204.2791 431.9651 L 200.6436 431.7544 L 202.6194 427.0125 L 197.1663 426.3275 L 198.2332 423.7459 L 199.4582 413.3664 L 200.4066 411.9965 L 200.209 408.4665 L 203.1726 406.4644 L 205.1484 396.0322 L 206.6105 393.7667 L 213.4072 391.8172 L 214.3556 389.9732 L 217.7144 390.9215 L 219.295 386.1797 L 223.2466 384.3883 L 227.9885 384.1249 L 232.5328 382.3335 L 243.3996 383.4399 L 244.427 381.5959 L 244.8221 377.012 L 247.2326 375.2207 L 246.4818 373.5874 L 246.4818 369.9519 L 247.4697 368.1079 L 249.0898 368.1079 L 247.3511 364.7885 L 245.0197 363.4187 L 238.0649 364.4724 L 234.7456 363.9982 L 233.6787 360.0467 L 235.5755 355.4102 L 235.1408 344.7673 L 234.1529 339.4985 L 235.3384 332.7018 L 234.6666 331.1212 L 230.0828 331.8588 L 227.1981 327.8546 L 224.5111 325.4837 L 215.9757 322.8493 L 211.7475 320.7945 L 205.5436 313.629 L 203.3702 309.8355 L 201.6315 303.0388 L 199.5767 300.7205 L 197.9566 297.2432 L 198.0751 293.4497 L 196.5735 292.2905 L 185.6277 277.1692 L 186.4575 277.5907 L 226.6054 293.6077 L 229.411 294.3453 L 259.4034 293.0282 L 270.3492 295.7152 L 273.4314 297.1905 L 275.9209 294.1873 L 284.3377 291.8163 L 293.703 292.2378 L 299.5908 293.3443 L 331.4404 284.9143 L 335.471 281.1735 L 332.3888 278.3283 L 332.7444 276.2208 L 334.6016 272.6908 L 335.3129 265.9995 L 333.9694 260.7307 L 336.854 250.6674 L 341.833 249.0341 L 344.9547 245.7675 L 345.9426 242.2374 L 349.7756 239.7084 L 352.6208 238.602 L 354.5965 238.8127 L 354.7151 240.9729 L 358.311 241.1836 L 363.369 242.132 L 370.2447 240.2353 L 374.2358 238.4966 L 374.789 236.3891 L 371.6278 236.3364 L 370.1657 235.3353 L 369.4544 232.0687 L 373.6826 232.0687 L 377.5551 228.8021 L 379.8075 228.9075 L 382.2575 227.1688 L 385.3002 222.8484 L 387.8687 224.7978 L 390.5558 224.9032 L 394.3097 226.115 L 395.6928 225.2193 L 392.2154 224.271 L 395.1001 223.0065 L 399.0516 224.5871 L 401.7782 229.487 L 403.5169 229.9085 L 407.8241 228.4333 L 410.7482 225.7462 L 413.6724 221.1624 L 415.7272 219.2656 L 416.5966 219.6345 L 422.8795 219.0022 L 426.515 215.8936 L 429.5182 215.5248 L 429.3996 217.8958 L 430.7827 218.9495 L 430.9407 222.1108 L 432.8375 220.7936 L 432.1657 232.6483 L 434.1415 233.8074 L 435.5641 238.8127 L 436.3939 235.8095 L 438.6858 235.4934 L 440.3059 233.4913 L 441.3729 236.4418 L 440.7011 243.5019 L 440.9777 246.5578 L 440.6616 252.8276 L 437.856 257.991 L 436.631 258.4651 L 436.4334 262.1533 L 434.1415 266.1575 L 432.956 271.7951 L 433.6673 273.4284 L 435.8407 272.6908 L 433.9439 276.8004 L 433.4302 279.6982 L 430.7432 286.0207 L 427.5029 289.8142 L 424.8553 290.4992 L 423.2352 298.0335 L 425.9222 299.8248 L 426.4755 302.8807 L 428.0166 303.3549 L 427.0682 308.0968 L 421.9707 314.2085 L 422.2868 317.7386 L 420.6667 321.9009 L 416.8732 326.2213 L 418.2957 328.4868 Z" fill="#c87c2d" fill-opacity="1" stroke="#000000" stroke-width="0.3636363557547579" paint-order="fill" stroke-opacity="1" stroke-dasharray="" stroke-linecap="butt" stroke-linejoin="miter" stroke-miterlimit="10" transform="matrix(1.100000023841858,0,0,1.100000023841858,-40.000003814697266,-26.649999618530273)" clip-path="none"/>
<path d="M 542.9675 116.2089 L 547.8675 114.7863 L 549.3691 115.2605 L 552.5698 120.3185 L 556.9956 122.8475 L 560.3939 123.9013 L 563.9503 123.1636 L 566.3213 122.0045 L 568.2575 124.0066 L 568.9688 127.0625 L 568.3761 129.0119 L 563.0415 129.5915 L 553.8343 128.2743 L 547.1562 126.2195 L 543.9159 126.2722 L 539.7668 128.9593 L 535.6967 129.8549 L 534.6297 130.7506 L 534.9459 133.1743 L 533.3652 134.8076 L 533.0096 136.7043 L 531.3104 139.5494 L 532.1403 140.8666 L 535.6572 141.4462 L 537.3563 144.7655 L 534.5902 148.4536 L 536.2894 150.7192 L 538.8579 150.3504 L 540.7942 150.7719 L 543.6393 150.2977 L 544.8643 151.8256 L 544.1135 153.8278 L 541.6635 155.7245 L 538.8974 156.3568 L 537.4749 158.675 L 537.6329 162.1524 L 542.0982 165.0502 L 542.6119 166.7889 L 541.4659 171.5834 L 538.8579 174.1125 L 539.016 177.063 L 543.2046 181.1726 L 546.682 182.0156 L 547.7489 183.122 L 548.3022 186.336 L 547.8675 187.8639 L 538.8184 183.6489 L 536.7636 181.8048 L 534.5507 182.4371 L 529.1371 179.1705 L 529.7298 176.9049 L 528.3468 175.3243 L 528.3072 172.5845 L 527.4774 170.8985 L 528.7814 168.791 L 528.5443 164.8921 L 527.2008 163.3642 L 527.7145 160.7298 L 526.7266 157.7266 L 526.9242 154.3546 L 525.1855 151.3514 L 523.6839 143.1322 L 521.5896 139.8656 L 522.5775 134.0173 L 526.0549 132.8581 L 527.1218 133.5958 L 527.596 130.2764 L 528.8605 127.4313 L 530.283 126.1668 L 533.4838 125.4819 L 536.6846 123.2163 L 538.7394 118.7379 L 537.791 117.7895 L 539.2136 115.9981 L 539.2136 115.9981 L 539.2136 115.9981 L 539.5692 115.9981 L 542.9675 116.2089 Z" fill="#769c9b" fill-opacity="1" stroke="#000000" stroke-width="0.3636363557547579" paint-order="fill" stroke-opacity="1" stroke-dasharray="" stroke-linecap="butt" stroke-linejoin="miter" stroke-miterlimit="10" transform="matrix(1.100000023841858,0,0,1.100000023841858,-40.000003814697266,-26.649999618530273)" clip-path="none"/>
<path d="M 542.9675 116.2089 L 539.2136 115.9981 L 533.9185 113.153 L 530.0854 112.1519 L 528.979 112.9949 L 527.7145 109.9918 L 528.5443 106.4617 L 529.9274 105.4606 L 529.1766 102.9316 L 525.8573 102.6155 L 522.696 103.037 L 520.2461 102.7209 L 513.0147 97.7156 L 513.2123 93.9748 L 511.5131 92.6576 L 506.0995 92.9737 L 504.4793 94.1328 L 500.6463 93.8167 L 497.0109 92.3414 L 498.71 88.8641 L 497.1294 86.0716 L 497.8802 81.962 L 498.9076 80.6448 L 501.081 80.5921 L 505.8229 76.2191 L 505.8229 74.4804 L 508.1148 73.9535 L 510.8018 69.6331 L 510.2486 66.5772 L 512.8171 65.4181 L 513.7655 66.0504 L 518.6654 64.5751 L 523.3283 64.9439 L 525.5016 65.7342 L 526.4105 64.9966 L 530.2435 65.2601 L 530.0064 62.9418 L 526.1734 61.0977 L 525.8968 59.7279 L 529.7693 60.2021 L 531.9032 61.4139 L 535.6176 61.2031 L 536.0523 59.3064 L 538.4628 58.9902 L 542.849 55.6182 L 544.9038 55.3548 L 546.4844 56.4612 L 546.524 54.5118 L 549.4481 53.3 L 550.9497 54.4591 L 552.8069 54.3537 L 555.0198 57.6731 L 555.8496 55.829 L 560.552 54.5645 L 563.0415 55.7763 L 567.0326 56.6193 L 568.218 58.1472 L 568.8503 61.8354 L 570.9841 62.5203 L 572.8414 60.9397 L 574.8567 61.2031 L 578.5711 63.0472 L 580.8235 65.0493 L 583.7477 69.8439 L 583.9453 74.9546 L 585.2493 77.1147 L 584.459 79.3276 L 582.4832 81.5932 L 583.3525 83.648 L 585.0122 84.6491 L 586.988 84.6491 L 588.45 86.1243 L 589.3194 89.7071 L 590.0702 90.2866 L 593.7846 89.9178 L 596.037 89.0748 L 599.3168 86.4931 L 600.1071 87.6523 L 600.5418 91.2877 L 603.3079 92.2361 L 606.074 94.1328 L 614.3723 110.624 L 613.7796 114.6283 L 611.5667 116.8938 L 607.9312 116.8411 L 607.22 120.4766 L 605.0466 122.9529 L 602.5176 123.8486 L 600.4628 122.9529 L 598.5265 123.3217 L 595.0887 125.6926 L 591.5323 126.6937 L 588.9637 126.3776 L 587.7783 128.1689 L 582.9574 132.3313 L 578.6897 132.7528 L 571.7349 131.3302 L 568.3761 129.0119 L 568.9688 127.0625 L 568.2575 124.0066 L 566.3213 122.0045 L 563.9503 123.1636 L 560.3939 123.9013 L 556.9956 122.8475 L 552.5698 120.3185 L 549.3691 115.2605 L 547.8675 114.7863 L 542.9675 116.2089 Z" fill="#361f70" fill-opacity="1" stroke="#000000" stroke-width="0.3636363557547579" paint-order="fill" stroke-opacity="1" stroke-dasharray="" stroke-linecap="butt" stroke-linejoin="miter" stroke-miterlimit="10" transform="matrix(1.100000023841858,0,0,1.100000023841858,-40.000003814697266,-26.649999618530273)" clip-path="none"/>
<path d="M 539.2136 115.9981 L 537.791 117.7895 L 538.7394 118.7379 L 536.6846 123.2163 L 533.4838 125.4819 L 530.283 126.1668 L 528.8605 127.4313 L 527.596 130.2764 L 527.1218 133.5958 L 526.0549 132.8581 L 522.5775 134.0173 L 521.5896 139.8656 L 523.6839 143.1322 L 525.1855 151.3514 L 521.0759 153.0374 L 519.9694 156.0406 L 516.9663 158.0428 L 515.2276 158.2008 L 512.7776 159.3599 L 510.1301 160.8879 L 507.9567 159.9922 L 508.6285 157.9374 L 505.8624 153.9858 L 503.8866 156.7256 L 501.8318 156.1987 L 502.8197 154.7761 L 500.6068 154.1966 L 499.3423 151.931 L 496.8923 152.3525 L 494.798 153.9858 L 491.9924 154.8288 L 492.0319 160.2556 L 488.1594 159.6234 L 486.4997 161.0459 L 485.3538 164.1545 L 484.8796 168.0534 L 483.0223 171.3727 L 479.4659 173.006 L 478.5966 176.7995 L 479.9006 178.3801 L 478.6756 182.964 L 475.949 180.6457 L 475.6724 178.907 L 471.3652 177.221 L 470.9306 178.3801 L 472.5507 183.1747 L 471.7209 184.5973 L 468.0854 184.7553 L 465.0427 186.3886 L 463.225 191.8681 L 464.8451 197.6638 L 467.4532 198.3487 L 467.8088 201.1411 L 468.8362 199.7713 L 469.8241 203.0906 L 468.204 206.0411 L 466.8604 211.0991 L 463.9363 214.313 L 463.6992 215.9463 L 460.7355 220.1613 L 458.3646 226.1677 L 457.2581 231.173 L 458.088 232.5956 L 457.7323 235.1773 L 456.5469 236.1256 L 455.3219 239.3396 L 453.8203 238.4439 L 452.0421 239.1288 L 449.7502 238.4439 L 446.668 239.603 L 445.2454 240.9729 L 439.8713 223.2699 L 439.9503 220.899 L 438.8834 217.4743 L 437.8165 216.5786 L 436.1963 211.5733 L 439.9898 207.6217 L 441.7285 207.6217 L 445.443 203.7755 L 446.3913 201.2992 L 448.9599 202.2476 L 449.434 200.9304 L 443.9414 194.3445 L 443.9809 190.9725 L 446.4309 187.0736 L 447.0236 184.9661 L 448.2486 183.965 L 450.6195 184.1231 L 454.7687 182.2263 L 456.784 179.592 L 454.9267 178.4855 L 452.1606 178.2221 L 452.1606 177.3791 L 449.2365 176.5888 L 448.1695 174.1651 L 446.4704 172.9533 L 450.3034 170.5297 L 452.9509 169.7921 L 453.5042 167.0523 L 459.7476 167.7373 L 462.7113 166.3147 L 463.6992 164.6814 L 463.5016 161.7309 L 465.0822 162.3631 L 468.5991 165.1029 L 471.6023 164.5233 L 475.6329 164.7341 L 476.7393 165.419 L 474.8821 166.9996 L 477.016 167.5792 L 481.8369 164.7868 L 480.5328 163.8384 L 482.232 160.5718 L 480.4143 159.9395 L 478.7942 158.3062 L 478.0434 159.8868 L 475.4353 161.6782 L 473.341 161.7836 L 472.7878 159.2019 L 470.891 157.5159 L 469.4685 153.7224 L 469.3894 149.7181 L 468.5991 148.3483 L 470.6144 147.7687 L 473.3015 145.1343 L 473.341 143.3956 L 477.3321 139.4441 L 475.9095 136.3355 L 476.8184 133.6484 L 478.8337 132.3313 L 479.3869 128.5378 L 477.1345 128.0109 L 475.3563 128.8539 L 474.1708 128.327 L 473.5386 126.1668 L 471.9184 125.5873 L 470.5749 123.7959 L 472.1951 121.5303 L 472.0765 119.5282 L 474.487 117.3153 L 475.1982 115.2605 L 472.4321 112.2046 L 474.7241 108.095 L 473.6176 106.1456 L 473.8547 104.3015 L 471.0096 101.9833 L 471.8789 100.1392 L 469.1128 94.6597 L 467.1371 91.9199 L 465.0032 91.1823 L 462.6323 88.9168 L 464.0153 86.3351 L 466.3863 83.9114 L 467.9669 83.2792 L 470.3378 80.6448 L 472.3531 79.6964 L 471.9184 78.8007 L 474.0128 75.4814 L 476.7789 77.4836 L 478.2409 77.0094 L 477.6087 74.7438 L 480.1772 74.0589 L 484.4844 70.16 L 487.4876 68.9482 L 486.9739 67.4202 L 488.4755 66.6299 L 494.4819 65.4181 L 497.2084 63.3106 L 500.4882 62.6784 L 504.7954 62.6784 L 506.7317 61.9407 L 512.8566 60.887 L 520.8388 60.4655 L 525.8968 59.7279 L 526.1734 61.0977 L 530.0064 62.9418 L 530.2435 65.2601 L 526.4105 64.9966 L 525.5016 65.7342 L 523.3283 64.9439 L 518.6654 64.5751 L 513.7655 66.0504 L 512.8171 65.4181 L 510.2486 66.5772 L 510.8018 69.6331 L 508.1148 73.9535 L 505.8229 74.4804 L 505.8229 76.2191 L 501.081 80.5921 L 498.9076 80.6448 L 497.8802 81.962 L 497.1294 86.0716 L 498.71 88.8641 L 497.0109 92.3414 L 500.6463 93.8167 L 504.4793 94.1328 L 506.0995 92.9737 L 511.5131 92.6576 L 513.2123 93.9748 L 513.0147 97.7156 L 520.2461 102.7209 L 522.696 103.037 L 525.8573 102.6155 L 529.1766 102.9316 L 529.9274 105.4606 L 528.5443 106.4617 L 527.7145 109.9918 L 528.979 112.9949 L 530.0854 112.1519 L 533.9185 113.153 L 539.2136 115.9981 L 539.2136 115.9981 L 539.2136 115.9981 Z" fill="#364a9b" fill-opacity="1" stroke="#000000" stroke-width="0.3636363557547579" paint-order="fill" stroke-opacity="1" stroke-dasharray="" stroke-linecap="butt" stroke-linejoin="miter" stroke-miterlimit="10" transform="matrix(1.100000023841858,0,0,1.100000023841858,-40.000003814697266,-26.649999618530273)" clip-path="none"/>
<path d="M 440.9777 246.5578 L 440.7011 243.5019 L 441.3729 236.4418 L 440.3059 233.4913 L 438.6858 235.4934 L 436.3939 235.8095 L 435.5641 238.8127 L 434.1415 233.8074 L 432.1657 232.6483 L 432.8375 220.7936 L 430.9407 222.1108 L 430.7827 218.9495 L 429.3996 217.8958 L 429.5182 215.5248 L 426.515 215.8936 L 422.8795 219.0022 L 416.5966 219.6345 L 415.7272 219.2656 L 414.3837 213.312 L 414.8184 207.9378 L 413.7514 204.0916 L 415.174 200.6143 L 417.2288 199.4551 L 419.0465 196.3466 L 417.624 193.0273 L 420.2715 190.3402 L 420.0344 185.9671 L 422.0892 183.3855 L 425.7247 183.2274 L 427.9771 182.121 L 430.8222 182.9113 L 434.3391 181.2253 L 435.2084 179.592 L 437.2237 179.3812 L 441.61 175.535 L 441.3729 173.5329 L 437.8955 169.634 L 438.2511 165.4717 L 436.5915 162.6793 L 432.6794 161.8889 L 429.5972 155.9353 L 430.8222 153.1428 L 433.7463 152.7213 L 442.2422 155.3557 L 447.3002 155.8826 L 456.1122 154.8815 L 456.6654 153.5643 L 458.4831 153.5643 L 461.2887 151.931 L 462.2371 148.8751 L 462.0395 145.3451 L 462.6323 142.3419 L 460.775 141.3408 L 458.6412 138.8645 L 458.246 136.8624 L 461.0516 136.0194 L 461.3678 132.3313 L 464.45 129.9076 L 466.5838 125.8507 L 470.5749 123.7959 L 471.9184 125.5873 L 473.5386 126.1668 L 474.1708 128.327 L 475.3563 128.8539 L 477.1345 128.0109 L 479.3869 128.5378 L 478.8337 132.3313 L 476.8184 133.6484 L 475.9095 136.3355 L 477.3321 139.4441 L 473.341 143.3956 L 473.3015 145.1343 L 470.6144 147.7687 L 468.5991 148.3483 L 469.3894 149.7181 L 469.4685 153.7224 L 470.891 157.5159 L 472.7878 159.2019 L 473.341 161.7836 L 475.4353 161.6782 L 478.0434 159.8868 L 478.7942 158.3062 L 480.4143 159.9395 L 482.232 160.5718 L 480.5328 163.8384 L 481.8369 164.7868 L 477.016 167.5792 L 474.8821 166.9996 L 476.7393 165.419 L 475.6329 164.7341 L 471.6023 164.5233 L 468.5991 165.1029 L 465.0822 162.3631 L 463.5016 161.7309 L 463.6992 164.6814 L 462.7113 166.3147 L 459.7476 167.7373 L 453.5042 167.0523 L 452.9509 169.7921 L 450.3034 170.5297 L 446.4704 172.9533 L 448.1695 174.1651 L 449.2365 176.5888 L 452.1606 177.3791 L 452.1606 178.2221 L 454.9267 178.4855 L 456.784 179.592 L 454.7687 182.2263 L 450.6195 184.1231 L 448.2486 183.965 L 447.0236 184.9661 L 446.4309 187.0736 L 443.9809 190.9725 L 443.9414 194.3445 L 449.434 200.9304 L 448.9599 202.2476 L 446.3913 201.2992 L 445.443 203.7755 L 441.7285 207.6217 L 439.9898 207.6217 L 436.1963 211.5733 L 437.8165 216.5786 L 438.8834 217.4743 L 439.9503 220.899 L 439.8713 223.2699 L 445.2454 240.9729 L 445.3639 242.7643 L 441.61 243.9761 L 440.9777 246.5578 Z" fill="#364a9b" fill-opacity="1" stroke="#000000" stroke-width="0.3636363557547579" paint-order="fill" stroke-opacity="1" stroke-dasharray="" stroke-linecap="butt" stroke-linejoin="miter" stroke-miterlimit="10" transform="matrix(1.100000023841858,0,0,1.100000023841858,-40.000003814697266,-26.649999618530273)" clip-path="none"/>
<path d="M 515.2276 158.2008 L 517.5985 159.2019 L 520.4436 161.7309 L 518.4679 166.1039 L 517.0848 167.8953 L 514.7929 167.0523 L 515.0695 165.8405 L 513.3703 163.8911 L 509.6559 165.7351 L 507.4035 164.7341 L 507.1664 163.0481 L 510.1301 160.8879 L 512.7776 159.3599 L 515.2276 158.2008 Z" fill="#364a9b" fill-opacity="1" stroke="#000000" stroke-width="0.3636363557547579" paint-order="fill" stroke-opacity="1" stroke-dasharray="" stroke-linecap="butt" stroke-linejoin="miter" stroke-miterlimit="10" transform="matrix(1.100000023841858,0,0,1.100000023841858,-40.000003814697266,-26.649999618530273)" clip-path="none"/>
<path d="M 510.1301 160.8879 L 507.1664 163.0481 L 507.4035 164.7341 L 509.6559 165.7351 L 513.3703 163.8911 L 515.0695 165.8405 L 514.7929 167.0523 L 517.0848 167.8953 L 518.4679 166.1039 L 520.4436 161.7309 L 517.5985 159.2019 L 515.2276 158.2008 L 516.9663 158.0428 L 519.9694 156.0406 L 521.0759 153.0374 L 525.1855 151.3514 L 526.9242 154.3546 L 526.7266 157.7266 L 527.7145 160.7298 L 527.2008 163.3642 L 528.5443 164.8921 L 528.7814 168.791 L 527.4774 170.8985 L 528.3072 172.5845 L 528.3468 175.3243 L 529.7298 176.9049 L 529.1371 179.1705 L 534.5507 182.4371 L 536.7636 181.8048 L 538.8184 183.6489 L 547.8675 187.8639 L 548.2626 189.2865 L 550.5941 188.9176 L 553.3602 190.0241 L 555.7706 189.0757 L 557.5488 187.0736 L 556.4819 194.8713 L 557.5093 197.6638 L 559.248 198.7702 L 562.2117 198.138 L 564.1084 198.981 L 567.1511 198.138 L 571.8535 200.0874 L 575.4889 202.5637 L 576.4373 204.0916 L 574.9357 207.7798 L 572.3277 208.5701 L 571.814 209.94 L 568.2575 209.7819 L 566.0842 211.9948 L 562.7254 212.4163 L 561.6584 215.1033 L 559.3665 214.9453 L 558.6948 216.4732 L 556.0077 218.6334 L 554.19 222.7957 L 556.1262 225.8516 L 557.9045 231.2784 L 555.9682 235.7041 L 555.494 239.8138 L 556.8375 241.8159 L 559.7222 242.4481 L 558.2206 243.3965 L 556.1658 246.5051 L 554.5456 246.8739 L 553.0835 248.876 L 551.1473 248.7706 L 549.6062 252.3534 L 546.9981 256.4103 L 544.232 258.834 L 544.3506 260.7834 L 542.928 261.521 L 541.2684 264.2081 L 538.7394 266.6844 L 541.3869 269.4768 L 541.7426 271.7424 L 536.3684 276.4316 L 531.4685 277.7488 L 526.4895 280.6993 L 523.1702 293.1862 L 518.5469 303.0915 L 514.6744 309.7301 L 500.6463 317.7386 L 497.2875 322.217 L 495.8649 328.5922 L 494.6004 331.5427 L 490.2537 335.5997 L 487.6852 339.8147 L 486.9344 344.5038 L 478.6756 347.2436 L 471.7604 347.6124 L 467.3346 348.9296 L 460.8146 352.3543 L 458.5226 352.9338 L 455.1638 351.722 L 453.188 348.1393 L 452.9114 345.7157 L 450.8566 343.6082 L 447.972 342.3437 L 444.8502 343.292 L 440.6221 347.0855 L 434.7342 343.7135 L 432.5609 340.2362 L 430.1504 333.3868 L 429.7553 331.2793 L 427.898 329.0664 L 424.4997 328.5395 L 423.9465 327.5385 L 421.2199 327.1697 L 418.2957 328.4868 L 416.8732 326.2213 L 420.6667 321.9009 L 422.2868 317.7386 L 421.9707 314.2085 L 427.0682 308.0968 L 428.0166 303.3549 L 426.4755 302.8807 L 425.9222 299.8248 L 423.2352 298.0335 L 424.8553 290.4992 L 427.5029 289.8142 L 430.7432 286.0207 L 433.4302 279.6982 L 433.9439 276.8004 L 435.8407 272.6908 L 433.6673 273.4284 L 432.956 271.7951 L 434.1415 266.1575 L 436.4334 262.1533 L 436.631 258.4651 L 437.856 257.991 L 440.6616 252.8276 L 440.9777 246.5578 L 441.61 243.9761 L 445.3639 242.7643 L 445.2454 240.9729 L 446.668 239.603 L 449.7502 238.4439 L 452.0421 239.1288 L 453.8203 238.4439 L 455.3219 239.3396 L 456.5469 236.1256 L 457.7323 235.1773 L 458.088 232.5956 L 457.2581 231.173 L 458.3646 226.1677 L 460.7355 220.1613 L 463.6992 215.9463 L 463.9363 214.313 L 466.8604 211.0991 L 468.204 206.0411 L 469.8241 203.0906 L 468.8362 199.7713 L 467.8088 201.1411 L 467.4532 198.3487 L 464.8451 197.6638 L 463.225 191.8681 L 465.0427 186.3886 L 468.0854 184.7553 L 471.7209 184.5973 L 472.5507 183.1747 L 470.9306 178.3801 L 471.3652 177.221 L 475.6724 178.907 L 475.949 180.6457 L 478.6756 182.964 L 479.9006 178.3801 L 478.5966 176.7995 L 479.4659 173.006 L 483.0223 171.3727 L 484.8796 168.0534 L 485.3538 164.1545 L 486.4997 161.0459 L 488.1594 159.6234 L 492.0319 160.2556 L 491.9924 154.8288 L 494.798 153.9858 L 496.8923 152.3525 L 499.3423 151.931 L 500.6068 154.1966 L 502.8197 154.7761 L 501.8318 156.1987 L 503.8866 156.7256 L 505.8624 153.9858 L 508.6285 157.9374 L 507.9567 159.9922 L 510.1301 160.8879 Z" fill="#1a6422" fill-opacity="1" stroke="#000000" stroke-width="0.3636363557547579" paint-order="fill" stroke-opacity="1" stroke-dasharray="" stroke-linecap="butt" stroke-linejoin="miter" stroke-miterlimit="10" transform="matrix(1.100000023841858,0,0,1.100000023841858,-40.000003814697266,-26.649999618530273)" clip-path="none"/>
<path d="M -5 -5 L 5 -5 L 5 5 L -5 5 L -5 -5 Z" fill="none" fill-opacity="1" stroke="#ccc" stroke-width="0" paint-order="fill" stroke-opacity="1" stroke-dasharray="" stroke-linecap="butt" stroke-linejoin="miter" stroke-miterlimit="10" transform="matrix(1,0,0,1,795,266.5)" clip-path="none"/>
<path fill="rgba(255,255,255,0)" fill-opacity="0" stroke="#ccc" stroke-width="0" paint-order="fill" stroke-opacity="1" stroke-dasharray="" stroke-linecap="butt" stroke-linejoin="miter" stroke-miterlimit="10" transform="matrix(1,0,0,1,15,10)" clip-path="none"/><defs><filter id="f1" x="-100%" y="-100%" width="1000%" height="1000%"><feOffset result="offOut" in="SourceGraphic" dx="-1.4" dy="1.4"></feOffset><feColorMatrix result="matrixOut" in="offOut" type="matrix" values="0.2 0 0 0 0 0 0.2 0 0 0 0 0 0.2 0 0 0 0 0 1 0"></feColorMatrix><feGaussianBlur result="blurOut" in="matrixOut" stdDeviation="8"></feGaussianBlur><feBlend in="SourceGraphic" in2="blurOut" mode="normal"></feBlend></filter></defs>
<text x="643" y="519.33333333333" font-size="11">Created with paintmaps.com</text>
</svg>